<svg xmlns="http://www.w3.org/2000/svg" width="1440" height="900" viewBox="0 0 1440 900" role="img" aria-labelledby="title desc">
  <title id="title">VirtualBox download page with Windows hosts highlighted</title><desc id="desc">Illustrated walkthrough showing the official VirtualBox downloads page and Windows hosts option.</desc>
  <rect width="1440" height="900" fill="#0b1220"/><rect x="70" y="60" width="1300" height="780" rx="18" fill="#fff"/><rect x="70" y="60" width="1300" height="72" rx="18" fill="#e5e7eb"/><circle cx="110" cy="96" r="9" fill="#ef4444"/><circle cx="140" cy="96" r="9" fill="#f59e0b"/><circle cx="170" cy="96" r="9" fill="#22c55e"/>
  <rect x="220" y="78" width="1050" height="38" rx="18" fill="#fff"/><text x="245" y="104" font-family="Segoe UI,Arial" font-size="19" fill="#475569">https://www.virtualbox.org/wiki/Downloads</text>
  <rect x="70" y="132" width="1300" height="88" fill="#183a61"/><text x="120" y="188" font-family="Segoe UI,Arial" font-size="34" font-weight="700" fill="white">Oracle VirtualBox</text>
  <text x="140" y="290" font-family="Segoe UI,Arial" font-size="42" font-weight="700" fill="#111827">VirtualBox downloads</text><text x="140" y="342" font-family="Segoe UI,Arial" font-size="25" fill="#475569">VirtualBox Platform Packages</text>
  <rect x="140" y="385" width="700" height="84" rx="14" fill="#dbeafe" stroke="#2563eb" stroke-width="4"/><text x="180" y="438" font-family="Segoe UI,Arial" font-size="30" font-weight="700" fill="#1d4ed8">Windows hosts</text><path d="M760 412 l20 15 -20 15" fill="none" stroke="#1d4ed8" stroke-width="5"/>
  <rect x="140" y="495" width="700" height="70" rx="12" fill="#f8fafc" stroke="#cbd5e1"/><text x="180" y="540" font-family="Segoe UI,Arial" font-size="27" fill="#475569">macOS / Intel hosts</text>
  <rect x="140" y="590" width="700" height="70" rx="12" fill="#f8fafc" stroke="#cbd5e1"/><text x="180" y="635" font-family="Segoe UI,Arial" font-size="27" fill="#475569">Linux distributions</text>
  <rect x="900" y="370" width="380" height="230" rx="18" fill="#eff6ff"/><text x="940" y="422" font-family="Segoe UI,Arial" font-size="26" font-weight="700" fill="#1e3a8a">Choose this for Windows</text><text x="940" y="468" font-family="Segoe UI,Arial" font-size="22" fill="#334155">• Current stable release</text><text x="940" y="508" font-family="Segoe UI,Arial" font-size="22" fill="#334155">• Official Oracle domain</text><text x="940" y="548" font-family="Segoe UI,Arial" font-size="22" fill="#334155">• Extension Pack optional</text>
  <text x="70" y="875" font-family="Segoe UI,Arial" font-size="20" fill="#94a3b8">Illustrative walkthrough • Verify the URL before downloading</text>
</svg>
